<svg width="171" height="48" viewBox="0 0 171 48" fill="none" xmlns="http://www.w3.org/2000/svg">
<rect x="1.25" y="1.25" width="168.5" height="45.5" rx="3.75" stroke="#014BAC" stroke-width="2.5"/>
<path d="M86 43H6C5.44772 43 5 42.5523 5 42V6C5 5.44772 5.44772 5 6 5H86V43ZM25.3115 15.2002V18.3682H29.8242V32H33.1357V18.3682H37.6719V15.2002H25.3115ZM39.5205 15.2002V32H42.833V25.04H49.0732V32H52.3613V15.2002H49.0732V21.8721H42.833V15.2002H39.5205ZM55.4814 15.2002V32H65.874V28.832H58.7939V25.0645H65.1543V21.9443H58.7939V18.3682H65.7539V15.2002H55.4814Z" fill="#014BAC"/>
<path d="M112.112 21.872V15.2H115.4V32H112.112V25.04H105.872V32H102.56V15.2H105.872V21.872H112.112ZM118.521 32V15.2H121.833V32H118.521ZM133.199 32H129.095L123.455 15.2H127.055L131.159 28.112L135.239 15.2H138.863L133.199 32ZM143.794 25.064V28.832H150.874V32H140.482V15.2H150.754V18.368H143.794V21.944H150.154V25.064H143.794Z" fill="#014BAC"/>
</svg>
